# xmcd
#
# Track frame offsets:
#	150
#	1422
#	13182
#	30090
#	48432
#	59932
#	76062
#	89697
#	105605
#	115160
#	137125
#	147460
#	158015
#	185617
#	200072
#
# Disc length: 2944 seconds
#
# Revision: 0
# Processed by: cddbd v1.4PL0 Copyright (c) Steve Scherf et al.
# Submitted via: dBpowerAMP V4.0
#
DISCID=ce0b7e0f
DTITLE=Ray Pasnen - Live In Bermuda - CD1
DYEAR=1998
DGENRE=Country
TTITLE0=Intro
TTITLE1=Layla
TTITLE2=No Woman, No Cry
TTITLE3=Fast Car
TTITLE4=Margaritaville
TTITLE5=Rock And Roll
TTITLE6=Lucille
TTITLE7=Devil Went Down To Georgia
TTITLE8=How's Your Whole...
TTITLE9=A Little Help From My Friends
TTITLE10=All My Rowdy Friends
TTITLE11=I Feel Good
TTITLE12=Rodeo Song
TTITLE13=Dream On
TTITLE14=Perfect Country And Western Song
EXTD=
EXTT0=
EXTT1=
EXTT2=
EXTT3=
EXTT4=
EXTT5=
EXTT6=
EXTT7=
EXTT8=
EXTT9=
EXTT10=
EXTT11=
EXTT12=
EXTT13=
EXTT14=
PLAYORDER=
